<?xml version="1.0" encoding="UTF-8"?>
<!DOCTYPE svg PUBLIC "-//W3C//DTD SVG 1.1//EN" "http://www.w3.org/Graphics/SVG/1.1/DTD/svg11.dtd">
<!-- Creator: CorelDRAW 2018 (64 Bit Versão de avaliação) -->
<svg xmlns="http://www.w3.org/2000/svg" xml:space="preserve" width="100mm" height="40mm" version="1.1" style="shape-rendering:geometricPrecision; text-rendering:geometricPrecision; image-rendering:optimizeQuality; fill-rule:evenodd; clip-rule:evenodd"
viewBox="0 0 10000 4000"
 xmlns:xlink="http://www.w3.org/1999/xlink">
 <defs>
  <style type="text/css">
   <![CDATA[
    .fil0 {fill:#6E4D8B;fill-rule:nonzero}
   ]]>
  </style>
 </defs>
 <g id="Camada_x0020_1">
  <metadata id="CorelCorpID_0Corel-Layer"/>
  <g id="_2026600970784">
   <path class="fil0" d="M486.46 2151.37l0 -275.78 813.18 -672.62 0 295.95 -644.34 516.24 644.34 522.96 0 295.96 -813.18 -682.71zm909.66 1093.01l358.35 -2488.7 122.03 0 -358.35 2488.7 -122.03 0zm1388.31 -1093.01l-813.18 682.71 0 -295.96 642.62 -522.96 -642.62 -516.24 0 -295.95 813.18 672.62 0 275.78z"/>
   <path class="fil0" d="M3848.36 1164.56l93.22 0 0 405.78c0,70.65 -8.01,126.75 -23.88,168.3 -16.02,41.38 -44.81,75.23 -86.35,101.24 -41.71,26 -96.17,39.09 -163.89,39.09 -65.58,0 -119.39,-11.29 -161.1,-34.02 -41.87,-22.74 -71.63,-55.45 -89.46,-98.46 -17.83,-43.02 -26.82,-101.73 -26.82,-176.15l0 -405.78 93.22 0 0 405.61c0,61.01 5.73,106.15 17.01,134.94 11.29,28.95 30.59,51.35 58.23,66.89 27.47,15.7 61.17,23.55 100.91,23.55 68.04,0 116.61,-15.53 145.56,-46.45 28.95,-31.07 43.35,-90.61 43.35,-178.93l0 -405.61zm203.29 550.52l85.38 -13.73c4.74,34.18 18.15,60.35 40.07,78.67 21.91,18.15 52.66,27.31 91.92,27.31 39.74,0 69.18,-8.02 88.48,-24.21 19.14,-16.03 28.78,-35 28.78,-56.75 0,-19.46 -8.66,-34.84 -25.84,-45.96 -12.1,-7.69 -41.54,-17.34 -88.32,-29.28 -63.13,-15.86 -106.8,-29.6 -131.33,-41.21 -24.37,-11.78 -42.85,-27.81 -55.45,-48.41 -12.59,-20.45 -18.97,-43.18 -18.97,-68.04 0,-22.74 5.23,-43.67 15.54,-62.97 10.47,-19.3 24.53,-35.33 42.36,-48.09 13.41,-9.81 31.73,-18.15 54.79,-25.02 23.23,-6.87 47.92,-10.3 74.42,-10.3 39.91,0 74.91,5.72 105,17.33 30.26,11.45 52.5,27.15 66.89,46.78 14.23,19.79 24.21,46.12 29.61,79.16l-84.4 11.78c-3.76,-26.5 -14.88,-47.27 -33.2,-62.16 -18.32,-14.88 -44.16,-22.24 -77.69,-22.24 -39.41,0 -67.71,6.54 -84.55,19.63 -16.85,13.08 -25.36,28.46 -25.36,45.96 0,11.12 3.44,21.26 10.47,30.25 7.03,9.16 17.99,16.85 33.04,22.9 8.67,3.27 33.86,10.63 76.05,22.08 60.85,16.19 103.37,29.61 127.58,39.91 24.2,10.3 43.17,25.51 56.91,45.14 13.91,19.79 20.77,44.32 20.77,73.76 0,28.63 -8.34,55.61 -25.18,80.96 -16.85,25.35 -41.06,44.98 -72.62,58.88 -31.73,13.91 -67.55,20.77 -107.46,20.77 -66.07,0 -116.61,-13.73 -151.29,-41.05 -34.67,-27.47 -56.75,-68.04 -66.4,-121.85zm872.4 -12.75l89.3 11.77c-13.9,51.85 -39.91,92.25 -77.85,120.87 -37.95,28.62 -86.36,43.01 -145.4,43.01 -74.26,0 -133.14,-22.89 -176.64,-68.69 -43.51,-45.63 -65.26,-109.91 -65.26,-192.5 0,-85.38 21.92,-151.78 65.91,-198.89 44,-47.26 101.08,-70.81 171.24,-70.81 67.88,0 123.32,23.06 166.34,69.34 43.01,46.29 64.6,111.38 64.6,195.29 0,5.07 -0.16,12.75 -0.49,22.89l-379.28 0c3.27,55.78 18.97,98.63 47.43,128.23 28.29,29.61 63.79,44.49 106.15,44.49 31.56,0 58.55,-8.34 80.79,-25.03 22.41,-16.68 40.07,-43.34 53.16,-79.97zm-282.62 -138.37l283.6 0c-3.76,-42.85 -14.72,-74.91 -32.55,-96.33 -27.31,-33.21 -62.97,-49.89 -106.64,-49.89 -39.58,0 -72.78,13.25 -99.76,39.74 -26.83,26.5 -41.71,61.99 -44.65,106.48zm501.62 303.23l0 -442.58 -76.55 0 0 -66.73 76.55 0 0 -53.97c0,-34.19 2.94,-59.54 8.99,-76.06 8.34,-22.24 22.74,-40.39 43.67,-54.3 20.77,-13.9 50.05,-20.77 87.67,-20.77 24.37,0 51.19,2.95 80.63,8.67l-12.92 75.56c-17.99,-3.1 -34.84,-4.74 -50.87,-4.74 -26.17,0 -44.65,5.56 -55.61,16.68 -10.79,11.12 -16.19,31.9 -16.19,62.32l0 46.61 99.12 0 0 66.73 -98.14 0 0 442.58 -86.35 0zm584.71 0l0 -75.73c-39.58,57.74 -93.23,86.52 -161.1,86.52 -29.93,0 -57.9,-5.72 -83.91,-17.17 -26,-11.61 -45.3,-26 -57.9,-43.34 -12.59,-17.5 -21.42,-38.76 -26.49,-63.95 -3.44,-17.01 -5.23,-43.83 -5.23,-80.47l0 -315.17 86.35 0 0 281.8c0,44.98 1.8,75.4 5.24,90.94 5.39,22.74 16.84,40.4 34.51,53.32 17.5,12.92 39.09,19.46 64.93,19.46 25.84,0 50.05,-6.54 72.62,-19.79 22.57,-13.24 38.59,-31.4 48.08,-54.13 9.32,-22.74 14.07,-55.94 14.07,-99.28l0 -272.32 86.35 0 0 509.31 -77.52 0zm211.15 0l0 -702.63 86.35 0 0 702.63 -86.35 0zm513.24 0l0 -442.58 -76.55 0 0 -66.73 76.55 0 0 -53.97c0,-34.19 2.94,-59.54 8.99,-76.06 8.34,-22.24 22.74,-40.39 43.67,-54.3 20.77,-13.9 50.05,-20.77 87.67,-20.77 24.37,0 51.19,2.95 80.63,8.67l-12.92 75.56c-17.99,-3.1 -34.84,-4.74 -50.87,-4.74 -26.17,0 -44.65,5.56 -55.61,16.68 -10.79,11.12 -16.19,31.9 -16.19,62.32l0 46.61 99.12 0 0 66.73 -98.14 0 0 442.58 -86.35 0zm219.65 -254.66c0,-94.04 26.17,-163.71 78.67,-209.02 43.67,-37.62 97.16,-56.42 160.12,-56.42 69.84,0 127.09,22.89 171.57,68.69 44.33,45.63 66.57,108.93 66.57,189.56 0,65.42 -9.81,116.78 -29.44,154.23 -19.63,37.45 -48.25,66.57 -85.87,87.34 -37.45,20.77 -78.5,31.07 -122.83,31.07 -71.31,0 -128.88,-22.73 -172.87,-68.36 -44,-45.63 -65.92,-111.38 -65.92,-197.09zm88.32 0.17c0,65.09 14.23,113.83 42.69,146.05 28.62,32.39 64.44,48.58 107.78,48.58 42.86,0 78.51,-16.19 107.13,-48.74 28.46,-32.55 42.69,-82.11 42.69,-148.67 0,-62.81 -14.39,-110.4 -43.01,-142.62 -28.63,-32.39 -64.28,-48.58 -106.81,-48.58 -43.34,0 -79.16,16.03 -107.78,48.25 -28.46,32.22 -42.69,80.8 -42.69,145.73zm488.87 254.49l0 -509.31 77.52 0 0 78.02c19.79,-36.15 38.11,-60.03 54.96,-71.48 16.84,-11.61 35.32,-17.33 55.44,-17.33 29.11,0 58.72,9.15 88.81,27.31l-30.75 79.65c-20.93,-11.78 -41.87,-17.66 -62.8,-17.66 -18.81,0 -35.66,5.72 -50.54,17.01 -14.88,11.28 -25.52,26.98 -31.89,47.1 -9.65,30.58 -14.4,64.11 -14.4,100.59l0 266.1 -86.35 0z"/>
   <path class="fil0" d="M3379.8 3067.19l0 -957.76 658.12 0 0 161.86 -464.16 0 0 227.4 401.29 0 0 161.85 -401.29 0 0 406.65 -193.96 0zm990.97 0l-183.26 0 0 -694.24 169.89 0 0 98.54c29.2,-46.59 55.51,-77.14 78.92,-91.63 23.41,-14.49 49.94,-21.62 79.59,-21.62 41.91,0 82.26,11.59 121.06,34.55l-56.85 160.07c-30.99,-20.06 -59.75,-30.09 -86.28,-30.09 -25.86,0 -47.71,7.13 -65.55,21.18 -17.83,14.26 -31.88,39.68 -42.13,76.69 -10.26,37.01 -15.39,114.59 -15.39,232.53l0 214.02zm302.54 -355.59c0,-61.09 14.93,-120.17 45.03,-177.24 30.1,-57.3 72.68,-100.77 127.75,-130.87 55.06,-30.09 116.37,-45.25 184.37,-45.25 105,0 190.84,34.11 257.94,102.33 67.11,68.44 100.55,154.49 100.55,258.83 0,105.23 -33.89,192.4 -101.44,261.51 -67.77,69.11 -152.94,103.67 -255.71,103.67 -63.54,0 -124.18,-14.49 -181.92,-43.25 -57.52,-28.76 -101.44,-70.9 -131.54,-126.63 -30.1,-55.51 -45.03,-123.29 -45.03,-203.1zm188.6 9.81c0,68.89 16.28,121.72 48.83,158.29 32.77,36.78 72.9,55.06 120.83,55.06 47.71,0 87.84,-18.28 120.17,-55.06 32.33,-36.57 48.6,-89.85 48.6,-159.63 0,-68 -16.27,-120.39 -48.6,-156.95 -32.33,-36.79 -72.46,-55.07 -120.17,-55.07 -47.93,0 -88.06,18.28 -120.83,55.07 -32.55,36.56 -48.83,89.4 -48.83,158.29zm1302.65 345.78l-183.26 0 0 -353.81c0,-74.91 -4.01,-123.29 -11.81,-145.13 -8.03,-22.07 -20.74,-39.02 -38.57,-51.28 -17.84,-12.26 -39.24,-18.28 -64.21,-18.28 -32.1,0 -60.86,8.69 -86.28,26.08 -25.64,17.39 -43.02,40.58 -52.39,69.11 -9.58,28.76 -14.27,81.82 -14.27,159.41l0 313.9 -183.25 0 0 -694.24 169.88 0 0 101.88c60.86,-77.8 137.33,-116.59 229.85,-116.59 40.58,0 77.81,7.35 111.47,21.84 33.89,14.72 59.3,33.22 76.47,55.74 17.39,22.74 29.43,48.38 36.12,77.14 6.91,28.76 10.25,69.78 10.25,123.28l0 430.95zm502.73 -694.24l0 145.8 -125.74 0 0 281.13c0,57.08 1.12,90.29 3.57,99.66 2.45,9.36 7.8,17.16 16.5,23.41 8.47,6.02 18.73,9.14 30.99,9.14 17.16,0 41.69,-5.8 74.02,-17.62l15.38 142.69c-42.58,18.28 -90.74,27.42 -144.69,27.42 -33,0 -62.65,-5.57 -89.18,-16.72 -26.53,-11.15 -45.92,-25.64 -58.19,-43.25 -12.48,-17.84 -20.95,-41.69 -25.86,-72.01 -3.79,-21.4 -5.79,-64.66 -5.79,-129.98l0 -303.87 -84.28 0 0 -145.8 84.28 0 0 -137.78 183.25 -108.35 0 246.13 125.74 0zm501.4 694.24l0 -957.76 708.95 0 0 161.86 -514.99 0 0 212.68 478.88 0 0 161.86 -478.88 0 0 259.5 533.72 0 0 161.86 -727.68 0zm1522.24 0l-183.26 0 0 -353.81c0,-74.91 -4.01,-123.29 -11.81,-145.13 -8.03,-22.07 -20.74,-39.02 -38.57,-51.28 -17.84,-12.26 -39.24,-18.28 -64.21,-18.28 -32.1,0 -60.86,8.69 -86.28,26.08 -25.64,17.39 -43.02,40.58 -52.39,69.11 -9.58,28.76 -14.27,81.82 -14.27,159.41l0 313.9 -183.25 0 0 -694.24 169.88 0 0 101.88c60.86,-77.8 137.33,-116.59 229.85,-116.59 40.58,0 77.81,7.35 111.47,21.84 33.89,14.72 59.3,33.22 76.47,55.74 17.39,22.74 29.43,48.38 36.12,77.14 6.91,28.76 10.25,69.78 10.25,123.28l0 430.95zm822.43 0l-169.88 0 0 -101.88c-28.31,39.68 -61.98,69.33 -100.55,89.4 -38.56,19.84 -77.58,29.87 -116.82,29.87 -80.03,0 -148.48,-32.1 -205.55,-96.53 -56.85,-64.43 -85.39,-154.06 -85.39,-269.32 0,-117.71 27.65,-207.33 83.16,-268.64 55.51,-61.31 125.52,-91.85 210.23,-91.85 77.59,0 144.92,32.32 201.54,96.75l0 -345.56 183.26 0 0 957.76zm-489.58 -360.5c0,74.24 10.26,127.97 30.55,161.19 29.65,48.16 70.89,72.23 123.95,72.23 42.14,0 78.03,-18.06 107.46,-54.17 29.65,-36.12 44.36,-89.85 44.36,-161.63 0,-80.04 -14.26,-137.56 -43.02,-172.78 -28.76,-35.23 -65.33,-52.84 -110.14,-52.84 -43.47,0 -79.81,17.39 -109.24,52.17 -29.2,34.78 -43.92,86.72 -43.92,155.83z"/>
  </g>
 </g>
</svg>
